<svg width="20" height="21" viewBox="0 0 20 21" fill="none" xmlns="http://www.w3.org/2000/svg">
<path d="M4 2V9L6.5 7.5L9 9V2H4ZM15 21C13.6167 21 12.4377 20.5127 11.463 19.538C10.4877 18.5627 10 17.3833 10 16C10 14.6167 10.4877 13.4373 11.463 12.462C12.4377 11.4873 13.6167 11 15 11C16.3833 11 17.5627 11.4873 18.538 12.462C19.5127 13.4373 20 14.6167 20 16C20 17.3833 19.5127 18.5627 18.538 19.538C17.5627 20.5127 16.3833 21 15 21ZM13.75 18.5L17.75 16L13.75 13.5V18.5ZM8 16C8 16.7167 8.11267 17.4123 8.338 18.087C8.56267 18.7623 8.86667 19.4 9.25 20H2C1.45 20 0.979 19.8043 0.587 19.413C0.195667 19.021 0 18.55 0 18V2C0 1.45 0.195667 0.979 0.587 0.587C0.979 0.195667 1.45 0 2 0H14C14.55 0 15.021 0.195667 15.413 0.587C15.8043 0.979 16 1.45 16 2V9.05C15.8333 9.03333 15.6667 9.02067 15.5 9.012C15.3333 9.004 15.1667 9 15 9C13.05 9 11.396 9.679 10.038 11.037C8.67933 12.3957 8 14.05 8 16Z" fill="#FF7A00"/>
</svg>
