<svg width="151" height="18" viewBox="0 0 151 18" fill="none" xmlns="http://www.w3.org/2000/svg">
<path d="M144.243 9.06583V17.083L139.148 14.023V9.06583L132.388 5.00583V0.674397L141.71 6.27725L151 0.674397V5.00583L144.243 9.06583ZM115.478 9.06583V15.043H110.383V1.6944L120.54 7.79726L130.696 1.6944V15.043H125.637V9.06583L120.537 12.1287L115.478 9.06583ZM101.925 9.96011H98.5287V6.90011H106.987L101.925 9.96011ZM108.682 1.82011V4.88011H96.8277V11.9801H103.62V10.9801H108.679V15.043H91.7656V4.88011H90.0675V1.82011H108.682ZM77.3845 1.82011C80.3988 1.82011 82.9988 2.46583 85.1494 3.75725C87.3 5.04868 88.3723 6.60868 88.3723 8.44297C88.3723 10.2544 87.297 11.8173 85.1494 13.1087C83.0018 14.4001 80.4017 15.0458 77.3845 15.0458H76.5178V11.9801H77.3845C79.0121 11.9801 80.3988 11.6458 81.5446 10.9401C82.7227 10.2515 83.3132 9.42011 83.3132 8.44011C83.3132 7.44011 82.7227 6.60583 81.5446 5.92011C80.4017 5.21154 79.015 4.88011 77.3845 4.88011H74.8197V17.083L69.7576 14.023V4.88011H68.0595V1.82011H77.3845ZM56.2079 6.90011L48.5458 15.043H42.6524L56.205 0.797254L69.7576 15.043H52.8088V11.9801H60.9879L56.2079 6.90011ZM44.3534 6.90011H39.2914V4.88011H36.7266C35.096 4.88011 33.7123 5.2144 32.5665 5.92011C31.3884 6.60583 30.8331 7.44011 30.8331 8.44011C30.8331 9.41726 31.3884 10.2515 32.5665 10.9401C33.7093 11.6487 35.096 11.9801 36.7266 11.9801H40.9895V15.043H36.7266C33.7123 15.043 31.1122 14.3973 28.9616 13.1058C26.814 11.8144 25.7387 10.2515 25.7387 8.44011C25.7387 6.60583 26.814 5.04583 28.9616 3.7544C31.1093 2.46297 33.7093 1.81725 36.7266 1.81725H44.3505V6.90011H44.3534ZM13.8872 6.90011L6.228 15.043H0.334534L13.8872 0.797254L27.4398 15.043H10.4909V11.9801H18.6701L13.8872 6.90011Z" fill="#FDFDFD"/>
</svg>
