<svg width="60" height="17" viewBox="0 0 60 17" fill="none" xmlns="http://www.w3.org/2000/svg">
<path d="M48.4515 0.820217C51.4658 0.820217 54.0659 1.46593 56.2165 2.75736C58.367 4.04879 59.4394 5.60879 59.4394 7.44307C59.4394 9.2545 58.3641 10.8174 56.2165 12.1088C54.0688 13.4002 51.4688 14.0459 48.4515 14.0459H47.5848V10.9831H48.4515C50.0791 10.9831 51.4658 10.6488 52.6116 9.94307C53.7897 9.2545 54.3803 8.42307 54.3803 7.44307C54.3803 6.44307 53.7897 5.61165 52.6116 4.92307C51.4688 4.2145 50.0821 3.88307 48.4515 3.88307H45.8867V16.0859L40.8247 13.0259V3.88307H39.1266V0.820217H48.4515ZM30.6712 8.96307H27.275V5.90022H35.7333L30.6712 8.96307ZM37.4284 0.820217V3.88022H25.5739V10.9802H32.3664V9.98022H37.4255V14.0431H20.5148V3.88022H18.8167V0.820217H37.4284ZM12.0566 3.88022H10.3584V0.820217H17.1186V8.96307C17.1186 10.3574 16.3224 11.5659 14.6566 12.5459C12.9938 13.5459 11.0165 14.0459 8.66032 14.0459C6.33936 14.0459 4.32688 13.5459 2.69927 12.5459C1.03641 11.5659 0.204979 10.3602 0.204979 8.96307H5.29934C5.29934 9.52593 5.61075 10.0031 6.26885 10.4002C6.92694 10.7974 7.72312 10.9831 8.66032 10.9831C9.59458 10.9831 10.3937 10.7974 11.0518 10.4002C11.7099 10.0059 12.0566 9.52593 12.0566 8.96307V3.88022Z" fill="#173D7A"/>
</svg>
