<svg width="16" height="13" viewBox="0 0 16 13" fill="none" xmlns="http://www.w3.org/2000/svg">
<path d="M14.8991 4.00471L15.1667 3.86423V3.562V2.6C15.1667 2.11847 14.9704 1.65929 14.6252 1.32276C14.2805 0.986647 13.8155 0.8 13.3333 0.8H2.66667C2.18446 0.8 1.71954 0.986647 1.37481 1.32276C1.02964 1.65929 0.833333 2.11847 0.833333 2.6V3.562V3.86423L1.10094 4.00471L7.7676 7.50431L8 7.6263L8.2324 7.50431L14.8991 4.00471ZM1.5657 4.59608L0.833333 4.21169V5.0388V10.4C0.833333 10.8815 1.02965 11.3407 1.37481 11.6772C1.71954 12.0134 2.18446 12.2 2.66667 12.2H13.3333C13.8155 12.2 14.2805 12.0134 14.6252 11.6772C14.9704 11.3407 15.1667 10.8815 15.1667 10.4V5.0388V4.21169L14.4343 4.59608L8.08363 7.92927C8.05861 7.94241 8.02982 7.94966 8 7.94966C7.97018 7.94966 7.9414 7.94241 7.91637 7.92927L1.5657 4.59608ZM0.5 10.4V3.9494V2.6C0.5 2.04719 0.725116 1.51438 1.1301 1.11952C1.53551 0.724245 2.088 0.5 2.66667 0.5H13.3333C13.912 0.5 14.4645 0.724245 14.8699 1.11952C15.2749 1.51438 15.5 2.04719 15.5 2.6V10.4C15.5 10.9528 15.2749 11.4856 14.8699 11.8805C14.4645 12.2758 13.912 12.5 13.3333 12.5H2.66667C2.088 12.5 1.53551 12.2758 1.1301 11.8805C0.725116 11.4856 0.5 10.9528 0.5 10.4Z" fill="white" stroke="#FF912B"/>
</svg>
