<svg width="16" height="16" viewBox="0 0 16 16" fill="none" xmlns="http://www.w3.org/2000/svg">
<path d="M8.00368 3.95732C5.73225 3.95732 3.90011 5.76084 3.90011 7.99677C3.90011 10.2327 5.73225 12.0362 8.00368 12.0362C10.2751 12.0362 12.1073 10.2327 12.1073 7.99677C12.1073 5.76084 10.2751 3.95732 8.00368 3.95732ZM8.00368 10.6229C6.53583 10.6229 5.33583 9.44521 5.33583 7.99677C5.33583 6.54834 6.53225 5.3706 8.00368 5.3706C9.47511 5.3706 10.6715 6.54834 10.6715 7.99677C10.6715 9.44521 9.47154 10.6229 8.00368 10.6229ZM13.2322 3.79209C13.2322 4.31592 12.8037 4.73428 12.2751 4.73428C11.743 4.73428 11.318 4.3124 11.318 3.79209C11.318 3.27178 11.7465 2.8499 12.2751 2.8499C12.8037 2.8499 13.2322 3.27178 13.2322 3.79209ZM15.9501 4.74834C15.8894 3.48623 15.5965 2.36826 14.6572 1.44717C13.7215 0.526074 12.5858 0.237793 11.3037 0.174512C9.98225 0.100684 6.02154 0.100684 4.70011 0.174512C3.42154 0.234277 2.28583 0.522558 1.34654 1.44365C0.407258 2.36474 0.117972 3.48271 0.0536865 4.74482C-0.0213135 6.0456 -0.0213135 9.94443 0.0536865 11.2452C0.114401 12.5073 0.407258 13.6253 1.34654 14.5464C2.28583 15.4675 3.41797 15.7558 4.70011 15.819C6.02154 15.8929 9.98225 15.8929 11.3037 15.819C12.5858 15.7593 13.7215 15.471 14.6572 14.5464C15.593 13.6253 15.8858 12.5073 15.9501 11.2452C16.0251 9.94443 16.0251 6.04912 15.9501 4.74834ZM14.243 12.6409C13.9644 13.33 13.4251 13.8608 12.7215 14.1386C11.668 14.5499 9.16797 14.455 8.00368 14.455C6.8394 14.455 4.33583 14.5464 3.28583 14.1386C2.58583 13.8643 2.04654 13.3335 1.7644 12.6409C1.34654 11.6038 1.44297 9.14287 1.44297 7.99677C1.44297 6.85068 1.35011 4.38623 1.7644 3.35263C2.04297 2.66357 2.58226 2.13271 3.28583 1.85498C4.3394 1.44365 6.8394 1.53857 8.00368 1.53857C9.16797 1.53857 11.6715 1.44717 12.7215 1.85498C13.4215 2.1292 13.9608 2.66006 14.243 3.35263C14.6608 4.38974 14.5644 6.85068 14.5644 7.99677C14.5644 9.14287 14.6608 11.6073 14.243 12.6409Z" fill="white"/>
</svg>
