<svg width="12" height="15" viewBox="0 0 12 15" fill="none" xmlns="http://www.w3.org/2000/svg">
<path d="M6.00012 7.75L6.0007 7.75C6.46451 7.74946 6.90917 7.56498 7.23714 7.23701C7.5651 6.90905 7.74959 6.46439 7.75012 6.00058V6C7.75012 5.65388 7.64749 5.31554 7.45519 5.02775C7.2629 4.73996 6.98959 4.51566 6.66982 4.38321C6.35005 4.25076 5.99818 4.2161 5.65871 4.28363C5.31925 4.35115 5.00743 4.51782 4.76269 4.76256C4.51794 5.0073 4.35127 5.31912 4.28375 5.65859C4.21622 5.99806 4.25088 6.34992 4.38333 6.6697C4.51579 6.98947 4.74009 7.26278 5.02787 7.45507C5.31566 7.64736 5.65401 7.75 6.00012 7.75ZM4.88898 4.33706C5.2178 4.11735 5.60438 4.00006 5.99984 4C6.53014 4.00068 7.03852 4.21164 7.4135 4.58662C7.78846 4.96158 7.99941 5.46992 8.00012 6.00018C8.00009 6.39568 7.88279 6.78229 7.66306 7.11114C7.4433 7.44004 7.13094 7.69638 6.76549 7.84776C6.40004 7.99913 5.9979 8.03874 5.60994 7.96157C5.22198 7.8844 4.86561 7.69392 4.58591 7.41421C4.3062 7.13451 4.11572 6.77814 4.03855 6.39018C3.96138 6.00222 4.00099 5.60009 4.15236 5.23463C4.30374 4.86918 4.56008 4.55682 4.88898 4.33706Z" fill="#FDFDFD" stroke="#FF912B"/>
<path d="M10.1548 8.09519L10.5118 8.34542L6.40918 14.1976L6.22976 14.4536C6.24062 14.4489 6.2513 14.444 6.26177 14.4387C6.34025 14.3992 6.40279 14.3441 6.44652 14.2817C6.44652 14.2817 6.44653 14.2817 6.44653 14.2817L10.6179 8.33135L11.0273 8.61837L10.6179 8.33135C11.3008 7.35721 11.5996 6.1998 11.4707 5.05202C11.3417 3.90389 10.7913 2.82504 9.90227 1.99888L10.1548 8.09519ZM10.1548 8.09519L10.5118 8.34542C11.9142 6.34486 11.6078 3.66948 9.80231 1.99167L9.46685 2.35266L9.80231 1.99167C9.29975 1.52466 8.70508 1.15598 8.0531 0.905032C7.40115 0.654094 6.70352 0.525324 5.99976 0.525324C5.296 0.525324 4.59837 0.654094 3.94642 0.905032C3.29444 1.15598 2.69977 1.52466 2.19721 1.99167L2.19721 1.99167C0.391695 3.66947 0.0852957 6.34486 1.48773 8.34542L1.87569 8.07345L1.48774 8.34542L5.59034 14.1976L5.76978 14.4536M10.1548 8.09519L5.76978 14.4536M5.76978 14.4536C5.7589 14.4489 5.74821 14.444 5.73772 14.4387C5.65924 14.3992 5.59669 14.3441 5.55296 14.2817L1.38173 8.3314C1.38172 8.33139 1.38171 8.33137 1.38171 8.33136C0.645879 7.28144 0.35783 6.02131 0.565931 4.79241C0.774154 3.56279 1.46663 2.4395 2.52178 1.64437C3.57779 0.848592 4.91944 0.440846 6.28767 0.506942C7.65583 0.573035 8.94289 1.10765 9.90222 1.99884L5.76978 14.4536Z" fill="#FDFDFD" stroke="#FF912B"/>
</svg>
