<svg width="18" height="14" viewBox="0 0 18 14" fill="none" xmlns="http://www.w3.org/2000/svg">
<g clip-path="url(#clip0_1888_44)">
<path d="M17.9998 1.70441C17.3258 1.98888 16.6109 2.17561 15.8788 2.25838C16.6413 1.82297 17.2268 1.13349 17.5025 0.311979C16.7776 0.721787 15.9845 1.01052 15.1575 1.16571C14.4839 0.481989 13.5242 0.0546875 12.4619 0.0546875C10.4225 0.0546875 8.76893 1.62992 8.76893 3.57277C8.76893 3.84855 8.80162 4.11703 8.86455 4.37459C5.79541 4.22782 3.07432 2.82722 1.25287 0.698687C0.935059 1.21829 0.752949 1.82271 0.752949 2.46738C0.752949 3.68799 1.40496 4.76478 2.3958 5.39572C1.80936 5.37822 1.23582 5.22732 0.723067 4.95562C0.722856 4.97036 0.722856 4.9851 0.722856 4.9999C0.722856 6.70448 1.99579 8.12645 3.68512 8.44966C3.14131 8.59056 2.5709 8.61118 2.01745 8.50995C2.48735 9.90767 3.8512 10.9248 5.46712 10.9532C4.20325 11.8968 2.61089 12.4593 0.880777 12.4593C0.582653 12.4593 0.288746 12.4426 -0.000167847 12.4101C1.63411 13.4083 3.57522 13.9908 5.66069 13.9908C12.4534 13.9908 16.1678 8.62985 16.1678 3.98078C16.1678 3.82819 16.1643 3.67647 16.1571 3.52561C16.8801 3.0277 17.5041 2.41098 17.9998 1.70441Z" fill="white"/>
</g>
<defs>
<clipPath id="clip0_1888_44">
<rect width="18" height="14" fill="white"/>
</clipPath>
</defs>
</svg>
